<?xml version="1.0" standalone="no"?>
<!DOCTYPE svg PUBLIC "-//W3C//DTD SVG 20010904//EN"
 "http://www.w3.org/TR/2001/REC-SVG-20010904/DTD/svg10.dtd">
<svg version="1.0" xmlns="http://www.w3.org/2000/svg"
 width="499.000000pt" height="499.000000pt" viewBox="0 0 499.000000 499.000000"
 preserveAspectRatio="xMidYMid meet">

<g transform="translate(0.000000,499.000000) scale(0.100000,-0.100000)"
fill="#000000" stroke="none">
<path d="M2240 4091 c-20 -39 22 -82 60 -61 22 12 27 49 8 68 -18 18 -56 14
-68 -7z"/>
<path d="M2558 3835 c-63 -35 -75 -115 -27 -170 28 -31 36 -35 81 -35 41 0 54
5 79 29 87 87 -26 236 -133 176z"/>
<path d="M2297 3250 c-68 -54 -21 -153 68 -141 26 3 65 46 65 72 0 28 -26 75
-45 83 -30 11 -62 6 -88 -14z"/>
<path d="M2666 2984 c-27 -26 -12 -58 25 -52 39 5 36 67 -3 68 -4 0 -14 -7
-22 -16z"/>
<path d="M1060 2708 c0 -6 14 -56 31 -110 17 -55 29 -102 27 -104 -2 -2 -31 4
-63 12 -33 9 -90 22 -126 28 l-65 13 43 -105 c24 -58 42 -107 39 -109 -2 -2
-59 2 -127 10 -68 8 -125 14 -126 13 -1 -1 23 -44 53 -96 57 -101 65 -107 143
-109 52 -1 252 -35 336 -56 266 -69 570 -238 769 -430 201 -194 376 -453 465
-690 13 -33 26 -69 30 -80 6 -15 12 -7 26 40 42 135 224 451 325 565 226 254
453 421 697 515 37 15 84 33 103 41 84 35 315 82 482 99 l67 7 51 90 c28 49
50 93 48 97 -2 4 -56 1 -122 -6 -65 -8 -120 -12 -123 -10 -2 2 16 51 41 109
l44 105 -77 -14 c-42 -8 -98 -21 -125 -29 -27 -7 -51 -12 -53 -10 -3 2 9 49
26 104 17 54 31 104 31 110 0 20 -266 -76 -410 -148 -514 -258 -853 -700 -979
-1275 -15 -70 -41 -247 -42 -292 0 -21 -9 27 -20 106 -88 668 -438 1174 -1009
1461 -148 74 -410 169 -410 148z"/>
<path d="M2152 2699 c-61 -30 -93 -83 -94 -151 -1 -109 67 -178 175 -178 185
0 241 255 73 331 -54 24 -101 24 -154 -2z"/>
<path d="M2683 2303 c-33 -6 -73 -59 -73 -96 0 -102 121 -148 188 -72 65 75
-13 188 -115 168z"/>
</g>
</svg>
